<svg width="300" height="300" viewBox="0 0 300 300" fill="none" xmlns="http://www.w3.org/2000/svg">
<rect width="300" height="300" rx="150" fill="url(#paint0_linear_3_2)"/>
<path d="M53.0227 44.5V21.2273H57.9432V30.8295H67.9318V21.2273H72.8409V44.5H67.9318V34.8864H57.9432V44.5H53.0227ZM57.0341 83.5H51.7614L59.7955 60.2273H66.1364L74.1591 83.5H68.8864L63.0568 65.5455H62.875L57.0341 83.5ZM56.7045 74.3523H69.1591V78.1932H56.7045V74.3523ZM53.0227 122.5V99.2273H68.7045V103.284H57.9432V108.83H67.8977V112.886H57.9432V118.443H68.75V122.5H53.0227ZM53.0227 161.5V138.227H57.9432V148.489H58.25L66.625 138.227H72.5227L63.8864 148.648L72.625 161.5H66.7386L60.3636 151.932L57.9432 154.886V161.5H53.0227ZM53.0227 200.5V177.227H57.9432V187.489H58.25L66.625 177.227H72.5227L63.8864 187.648L72.625 200.5H66.7386L60.3636 190.932L57.9432 193.886V200.5H53.0227ZM74.4091 227.864C74.4091 230.402 73.928 232.561 72.9659 234.341C72.0114 236.121 70.7083 237.481 69.0568 238.42C67.4129 239.352 65.5644 239.818 63.5114 239.818C61.4432 239.818 59.5871 239.348 57.9432 238.409C56.2992 237.47 55 236.11 54.0455 234.33C53.0909 232.549 52.6136 230.394 52.6136 227.864C52.6136 225.326 53.0909 223.167 54.0455 221.386C55 219.606 56.2992 218.25 57.9432 217.318C59.5871 216.379 61.4432 215.909 63.5114 215.909C65.5644 215.909 67.4129 216.379 69.0568 217.318C70.7083 218.25 72.0114 219.606 72.9659 221.386C73.928 223.167 74.4091 225.326 74.4091 227.864ZM69.4205 227.864C69.4205 226.22 69.1742 224.833 68.6818 223.705C68.197 222.576 67.5114 221.72 66.625 221.136C65.7386 220.553 64.7008 220.261 63.5114 220.261C62.322 220.261 61.2841 220.553 60.3977 221.136C59.5114 221.72 58.822 222.576 58.3295 223.705C57.8447 224.833 57.6023 226.22 57.6023 227.864C57.6023 229.508 57.8447 230.894 58.3295 232.023C58.822 233.152 59.5114 234.008 60.3977 234.591C61.2841 235.174 62.322 235.466 63.5114 235.466C64.7008 235.466 65.7386 235.174 66.625 234.591C67.5114 234.008 68.197 233.152 68.6818 232.023C69.1742 230.894 69.4205 229.508 69.4205 227.864ZM53.0227 278.5V255.227H57.9432V265.489H58.25L66.625 255.227H72.5227L63.8864 265.648L72.625 278.5H66.7386L60.3636 268.932L57.9432 271.886V278.5H53.0227Z" fill="white"/>
<defs>
<linearGradient id="paint0_linear_3_2" x1="124.286" y1="49.7031" x2="295.527" y2="89.3378" gradientUnits="userSpaceOnUse">
<stop stop-color="#2E81FE"/>
<stop offset="1" stop-color="#959BB0"/>
</linearGradient>
</defs>
</svg>
